<?xml version="1.0" standalone="no"?>
<!DOCTYPE svg PUBLIC "-//W3C//DTD SVG 20010904//EN"
 "http://www.w3.org/TR/2001/REC-SVG-20010904/DTD/svg10.dtd">
<svg version="1.0" xmlns="http://www.w3.org/2000/svg"
 width="907.000000pt" height="1280.000000pt" viewBox="0 0 907.000000 1280.000000"
 preserveAspectRatio="xMidYMid meet">
<metadata>
Created by potrace 1.15, written by Peter Selinger 2001-2017
</metadata>
<g transform="translate(0.000000,1280.000000) scale(0.100000,-0.100000)"
fill="#000000" stroke="none">
<path d="M5400 12057 c-3 -2 -102 -12 -220 -21 -485 -38 -652 -66 -1105 -186
-339 -91 -905 -351 -1216 -561 -127 -85 -365 -265 -389 -294 -8 -9 -39 -34
-70 -55 -79 -54 -508 -483 -695 -695 -274 -310 -289 -327 -376 -440 -268 -344
-449 -662 -664 -1170 -56 -132 -166 -458 -221 -655 -8 -30 -22 -80 -31 -110
-34 -120 -74 -289 -88 -370 -7 -47 -20 -123 -29 -170 -50 -280 -68 -552 -67
-1005 1 -413 11 -614 46 -865 66 -475 143 -852 280 -1360 110 -405 345 -906
586 -1245 240 -338 567 -700 799 -885 234 -186 518 -366 765 -486 159 -77 447
-195 580 -237 44 -14 105 -35 135 -46 262 -93 768 -194 1200 -238 209 -21 795
-24 980 -5 215 22 365 45 380 57 21 18 122 37 153 30 57 -15 681 152 842 224
11 5 63 26 115 46 135 53 336 151 343 168 3 8 49 39 104 70 54 30 120 72 148
91 27 20 55 36 60 36 6 0 34 22 63 48 42 39 52 54 52 80 0 40 -11 45 -145 62
-55 6 -122 16 -148 21 -27 5 -128 14 -225 19 -97 6 -222 18 -277 26 -288 43
-601 187 -843 387 -77 64 -278 283 -357 390 -25 34 -59 80 -76 102 -91 120
-404 578 -439 642 -96 174 -214 377 -242 417 -15 21 -28 43 -28 49 0 5 -20 40
-45 77 -25 37 -52 85 -61 106 -9 22 -27 52 -40 67 -14 16 -47 77 -75 136 -28
58 -62 120 -75 138 -13 17 -24 34 -24 37 0 3 -13 27 -29 53 -16 27 -41 80 -56
118 -15 39 -38 93 -50 120 -53 119 -68 211 -81 511 -7 157 4 251 38 318 12 24
23 68 26 107 4 57 1 75 -22 123 -24 50 -25 60 -15 100 19 76 4 136 -67 277
-37 74 -38 75 -41 219 -6 209 22 487 52 516 14 14 16 28 12 66 -6 45 -4 50 19
60 19 9 24 18 21 35 -6 32 16 36 143 24 167 -16 222 13 240 125 15 90 -5 179
-106 474 -66 193 -86 304 -87 479 -1 148 1 159 71 362 90 261 173 406 335 594
39 44 90 98 115 121 34 31 43 45 38 61 -5 16 0 24 26 36 18 8 38 16 45 18 11
4 168 148 312 287 30 28 58 52 63 52 5 0 34 26 66 58 31 32 68 62 82 65 14 4
75 44 135 89 250 189 433 281 770 389 l100 31 285 4 c157 2 312 5 344 8 32 2
89 0 125 -5 36 -5 122 -14 191 -19 121 -9 195 -27 265 -64 17 -9 40 -16 52
-16 12 0 34 -5 49 -11 16 -5 73 -16 129 -24 55 -8 125 -21 155 -29 77 -19 222
-45 305 -55 68 -8 70 -7 98 20 38 39 59 92 48 121 -5 13 -32 45 -60 71 -28 26
-54 61 -58 78 -5 16 -28 52 -53 80 -364 411 -692 696 -1086 946 -52 32 -93 56
-206 116 -37 20 -75 41 -85 46 -58 32 -371 154 -518 202 -176 57 -429 121
-530 134 -27 4 -97 15 -155 26 -58 11 -172 27 -255 35 -157 15 -546 30 -555
21z"/>
</g>
</svg>
